<?xml version="1.0" encoding="utf-8" standalone="no"?>
<!DOCTYPE svg PUBLIC "-//W3C//DTD SVG 1.1//EN"
  "http://www.w3.org/Graphics/SVG/1.1/DTD/svg11.dtd">
<!-- Created with matplotlib (https://matplotlib.org/) -->
<svg height="576pt" version="1.1" viewBox="0 0 1296 576" width="1296pt" xmlns="http://www.w3.org/2000/svg" xmlns:xlink="http://www.w3.org/1999/xlink">
 <defs>
  <style type="text/css">
*{stroke-linecap:butt;stroke-linejoin:round;}
  </style>
 </defs>
 <g id="figure_1">
  <g id="patch_1">
   <path d="M 0 576 
L 1296 576 
L 1296 0 
L 0 0 
z
" style="fill:#ffffff;"/>
  </g>
  <g id="axes_1">
   <g id="patch_2">
    <path d="M 162 512.64 
L 1166.4 512.64 
L 1166.4 69.12 
L 162 69.12 
z
" style="fill:#ffffff;"/>
   </g>
   <g id="patch_3">
    <path clip-path="url(#p2e6e0d1109)" d="M 162 512.64 
L 162 69.12 
L 209.828571 69.12 
L 209.828571 512.64 
z
" style="fill:#0000ff;opacity:0.3;stroke:#0000ff;stroke-linejoin:miter;"/>
   </g>
   <g id="patch_4">
    <path clip-path="url(#p2e6e0d1109)" d="M 209.828571 512.64 
L 209.828571 69.12 
L 257.657143 69.12 
L 257.657143 512.64 
z
" style="fill:#008000;opacity:0.3;stroke:#008000;stroke-linejoin:miter;"/>
   </g>
   <g id="patch_5">
    <path clip-path="url(#p2e6e0d1109)" d="M 257.657143 512.64 
L 257.657143 69.12 
L 305.485714 69.12 
L 305.485714 512.64 
z
" style="fill:#ff0000;opacity:0.3;stroke:#ff0000;stroke-linejoin:miter;"/>
   </g>
   <g id="patch_6">
    <path clip-path="url(#p2e6e0d1109)" d="M 305.485714 512.64 
L 305.485714 69.12 
L 592.457143 69.12 
L 592.457143 512.64 
z
" style="fill:#91482d;opacity:0.3;stroke:#91482d;stroke-linejoin:miter;"/>
   </g>
   <g id="patch_7">
    <path clip-path="url(#p2e6e0d1109)" d="M 592.457143 512.64 
L 592.457143 69.12 
L 1405.542857 69.12 
L 1405.542857 512.64 
z
" style="fill:#ba943c;opacity:0.3;stroke:#ba943c;stroke-linejoin:miter;"/>
   </g>
   <g id="matplotlib.axis_1">
    <g id="xtick_1">
     <g id="line2d_1">
      <path clip-path="url(#p2e6e0d1109)" d="M 162 512.64 
L 162 69.12 
" style="fill:none;stroke:#79818f;stroke-linecap:square;stroke-opacity:0.6;stroke-width:0.7;"/>
     </g>
     <g id="line2d_2">
      <defs>
       <path d="M 0 0 
L 0 3.5 
" id="mdc4363d761" style="stroke:#000000;stroke-width:0.8;"/>
      </defs>
      <g>
       <use style="stroke:#000000;stroke-width:0.8;" x="162" xlink:href="#mdc4363d761" y="512.64"/>
      </g>
     </g>
     <g id="text_1">
      <!-- 400 nm -->
      <defs>
       <path d="M 37.796875 64.3125 
L 12.890625 25.390625 
L 37.796875 25.390625 
z
M 35.203125 72.90625 
L 47.609375 72.90625 
L 47.609375 25.390625 
L 58.015625 25.390625 
L 58.015625 17.1875 
L 47.609375 17.1875 
L 47.609375 0 
L 37.796875 0 
L 37.796875 17.1875 
L 4.890625 17.1875 
L 4.890625 26.703125 
z
" id="DejaVuSans-52"/>
       <path d="M 31.78125 66.40625 
Q 24.171875 66.40625 20.328125 58.90625 
Q 16.5 51.421875 16.5 36.375 
Q 16.5 21.390625 20.328125 13.890625 
Q 24.171875 6.390625 31.78125 6.390625 
Q 39.453125 6.390625 43.28125 13.890625 
Q 47.125 21.390625 47.125 36.375 
Q 47.125 51.421875 43.28125 58.90625 
Q 39.453125 66.40625 31.78125 66.40625 
z
M 31.78125 74.21875 
Q 44.046875 74.21875 50.515625 64.515625 
Q 56.984375 54.828125 56.984375 36.375 
Q 56.984375 17.96875 50.515625 8.265625 
Q 44.046875 -1.421875 31.78125 -1.421875 
Q 19.53125 -1.421875 13.0625 8.265625 
Q 6.59375 17.96875 6.59375 36.375 
Q 6.59375 54.828125 13.0625 64.515625 
Q 19.53125 74.21875 31.78125 74.21875 
z
" id="DejaVuSans-48"/>
       <path id="DejaVuSans-32"/>
       <path d="M 54.890625 33.015625 
L 54.890625 0 
L 45.90625 0 
L 45.90625 32.71875 
Q 45.90625 40.484375 42.875 44.328125 
Q 39.84375 48.1875 33.796875 48.1875 
Q 26.515625 48.1875 22.3125 43.546875 
Q 18.109375 38.921875 18.109375 30.90625 
L 18.109375 0 
L 9.078125 0 
L 9.078125 54.6875 
L 18.109375 54.6875 
L 18.109375 46.1875 
Q 21.34375 51.125 25.703125 53.5625 
Q 30.078125 56 35.796875 56 
Q 45.21875 56 50.046875 50.171875 
Q 54.890625 44.34375 54.890625 33.015625 
z
" id="DejaVuSans-110"/>
       <path d="M 52 44.1875 
Q 55.375 50.25 60.0625 53.125 
Q 64.75 56 71.09375 56 
Q 79.640625 56 84.28125 50.015625 
Q 88.921875 44.046875 88.921875 33.015625 
L 88.921875 0 
L 79.890625 0 
L 79.890625 32.71875 
Q 79.890625 40.578125 77.09375 44.375 
Q 74.3125 48.1875 68.609375 48.1875 
Q 61.625 48.1875 57.5625 43.546875 
Q 53.515625 38.921875 53.515625 30.90625 
L 53.515625 0 
L 44.484375 0 
L 44.484375 32.71875 
Q 44.484375 40.625 41.703125 44.40625 
Q 38.921875 48.1875 33.109375 48.1875 
Q 26.21875 48.1875 22.15625 43.53125 
Q 18.109375 38.875 18.109375 30.90625 
L 18.109375 0 
L 9.078125 0 
L 9.078125 54.6875 
L 18.109375 54.6875 
L 18.109375 46.1875 
Q 21.1875 51.21875 25.484375 53.609375 
Q 29.78125 56 35.6875 56 
Q 41.65625 56 45.828125 52.96875 
Q 50 49.953125 52 44.1875 
z
" id="DejaVuSans-109"/>
      </defs>
      <g transform="translate(145.752454 565.120445)rotate(-45)scale(0.14 -0.14)">
       <use xlink:href="#DejaVuSans-52"/>
       <use x="63.623047" xlink:href="#DejaVuSans-48"/>
       <use x="127.246094" xlink:href="#DejaVuSans-48"/>
       <use x="190.869141" xlink:href="#DejaVuSans-32"/>
       <use x="222.65625" xlink:href="#DejaVuSans-110"/>
       <use x="286.035156" xlink:href="#DejaVuSans-109"/>
      </g>
     </g>
    </g>
    <g id="xtick_2">
     <g id="line2d_3">
      <path clip-path="url(#p2e6e0d1109)" d="M 209.828571 512.64 
L 209.828571 69.12 
" style="fill:none;stroke:#79818f;stroke-linecap:square;stroke-opacity:0.6;stroke-width:0.7;"/>
     </g>
     <g id="line2d_4">
      <g>
       <use style="stroke:#000000;stroke-width:0.8;" x="209.828571" xlink:href="#mdc4363d761" y="512.64"/>
      </g>
     </g>
     <g id="text_2">
      <!-- 500 nm -->
      <defs>
       <path d="M 10.796875 72.90625 
L 49.515625 72.90625 
L 49.515625 64.59375 
L 19.828125 64.59375 
L 19.828125 46.734375 
Q 21.96875 47.46875 24.109375 47.828125 
Q 26.265625 48.1875 28.421875 48.1875 
Q 40.625 48.1875 47.75 41.5 
Q 54.890625 34.8125 54.890625 23.390625 
Q 54.890625 11.625 47.5625 5.09375 
Q 40.234375 -1.421875 26.90625 -1.421875 
Q 22.3125 -1.421875 17.546875 -0.640625 
Q 12.796875 0.140625 7.71875 1.703125 
L 7.71875 11.625 
Q 12.109375 9.234375 16.796875 8.0625 
Q 21.484375 6.890625 26.703125 6.890625 
Q 35.15625 6.890625 40.078125 11.328125 
Q 45.015625 15.765625 45.015625 23.390625 
Q 45.015625 31 40.078125 35.4375 
Q 35.15625 39.890625 26.703125 39.890625 
Q 22.75 39.890625 18.8125 39.015625 
Q 14.890625 38.140625 10.796875 36.28125 
z
" id="DejaVuSans-53"/>
      </defs>
      <g transform="translate(193.581025 565.120445)rotate(-45)scale(0.14 -0.14)">
       <use xlink:href="#DejaVuSans-53"/>
       <use x="63.623047" xlink:href="#DejaVuSans-48"/>
       <use x="127.246094" xlink:href="#DejaVuSans-48"/>
       <use x="190.869141" xlink:href="#DejaVuSans-32"/>
       <use x="222.65625" xlink:href="#DejaVuSans-110"/>
       <use x="286.035156" xlink:href="#DejaVuSans-109"/>
      </g>
     </g>
    </g>
    <g id="xtick_3">
     <g id="line2d_5">
      <path clip-path="url(#p2e6e0d1109)" d="M 257.657143 512.64 
L 257.657143 69.12 
" style="fill:none;stroke:#79818f;stroke-linecap:square;stroke-opacity:0.6;stroke-width:0.7;"/>
     </g>
     <g id="line2d_6">
      <g>
       <use style="stroke:#000000;stroke-width:0.8;" x="257.657143" xlink:href="#mdc4363d761" y="512.64"/>
      </g>
     </g>
     <g id="text_3">
      <!-- 600 nm -->
      <defs>
       <path d="M 33.015625 40.375 
Q 26.375 40.375 22.484375 35.828125 
Q 18.609375 31.296875 18.609375 23.390625 
Q 18.609375 15.53125 22.484375 10.953125 
Q 26.375 6.390625 33.015625 6.390625 
Q 39.65625 6.390625 43.53125 10.953125 
Q 47.40625 15.53125 47.40625 23.390625 
Q 47.40625 31.296875 43.53125 35.828125 
Q 39.65625 40.375 33.015625 40.375 
z
M 52.59375 71.296875 
L 52.59375 62.3125 
Q 48.875 64.0625 45.09375 64.984375 
Q 41.3125 65.921875 37.59375 65.921875 
Q 27.828125 65.921875 22.671875 59.328125 
Q 17.53125 52.734375 16.796875 39.40625 
Q 19.671875 43.65625 24.015625 45.921875 
Q 28.375 48.1875 33.59375 48.1875 
Q 44.578125 48.1875 50.953125 41.515625 
Q 57.328125 34.859375 57.328125 23.390625 
Q 57.328125 12.15625 50.6875 5.359375 
Q 44.046875 -1.421875 33.015625 -1.421875 
Q 20.359375 -1.421875 13.671875 8.265625 
Q 6.984375 17.96875 6.984375 36.375 
Q 6.984375 53.65625 15.1875 63.9375 
Q 23.390625 74.21875 37.203125 74.21875 
Q 40.921875 74.21875 44.703125 73.484375 
Q 48.484375 72.75 52.59375 71.296875 
z
" id="DejaVuSans-54"/>
      </defs>
      <g transform="translate(241.409597 565.120445)rotate(-45)scale(0.14 -0.14)">
       <use xlink:href="#DejaVuSans-54"/>
       <use x="63.623047" xlink:href="#DejaVuSans-48"/>
       <use x="127.246094" xlink:href="#DejaVuSans-48"/>
       <use x="190.869141" xlink:href="#DejaVuSans-32"/>
       <use x="222.65625" xlink:href="#DejaVuSans-110"/>
       <use x="286.035156" xlink:href="#DejaVuSans-109"/>
      </g>
     </g>
    </g>
    <g id="xtick_4">
     <g id="line2d_7">
      <path clip-path="url(#p2e6e0d1109)" d="M 305.485714 512.64 
L 305.485714 69.12 
" style="fill:none;stroke:#79818f;stroke-linecap:square;stroke-opacity:0.6;stroke-width:0.7;"/>
     </g>
     <g id="line2d_8">
      <g>
       <use style="stroke:#000000;stroke-width:0.8;" x="305.485714" xlink:href="#mdc4363d761" y="512.64"/>
      </g>
     </g>
     <g id="text_4">
      <!-- 700 nm -->
      <defs>
       <path d="M 8.203125 72.90625 
L 55.078125 72.90625 
L 55.078125 68.703125 
L 28.609375 0 
L 18.3125 0 
L 43.21875 64.59375 
L 8.203125 64.59375 
z
" id="DejaVuSans-55"/>
      </defs>
      <g transform="translate(289.238168 565.120445)rotate(-45)scale(0.14 -0.14)">
       <use xlink:href="#DejaVuSans-55"/>
       <use x="63.623047" xlink:href="#DejaVuSans-48"/>
       <use x="127.246094" xlink:href="#DejaVuSans-48"/>
       <use x="190.869141" xlink:href="#DejaVuSans-32"/>
       <use x="222.65625" xlink:href="#DejaVuSans-110"/>
       <use x="286.035156" xlink:href="#DejaVuSans-109"/>
      </g>
     </g>
    </g>
    <g id="xtick_5">
     <g id="line2d_9">
      <path clip-path="url(#p2e6e0d1109)" d="M 592.457143 512.64 
L 592.457143 69.12 
" style="fill:none;stroke:#79818f;stroke-linecap:square;stroke-opacity:0.6;stroke-width:0.7;"/>
     </g>
     <g id="line2d_10">
      <g>
       <use style="stroke:#000000;stroke-width:0.8;" x="592.457143" xlink:href="#mdc4363d761" y="512.64"/>
      </g>
     </g>
     <g id="text_5">
      <!-- 1,300 nm -->
      <defs>
       <path d="M 12.40625 8.296875 
L 28.515625 8.296875 
L 28.515625 63.921875 
L 10.984375 60.40625 
L 10.984375 69.390625 
L 28.421875 72.90625 
L 38.28125 72.90625 
L 38.28125 8.296875 
L 54.390625 8.296875 
L 54.390625 0 
L 12.40625 0 
z
" id="DejaVuSans-49"/>
       <path d="M 11.71875 12.40625 
L 22.015625 12.40625 
L 22.015625 4 
L 14.015625 -11.625 
L 7.71875 -11.625 
L 11.71875 4 
z
" id="DejaVuSans-44"/>
       <path d="M 40.578125 39.3125 
Q 47.65625 37.796875 51.625 33 
Q 55.609375 28.21875 55.609375 21.1875 
Q 55.609375 10.40625 48.1875 4.484375 
Q 40.765625 -1.421875 27.09375 -1.421875 
Q 22.515625 -1.421875 17.65625 -0.515625 
Q 12.796875 0.390625 7.625 2.203125 
L 7.625 11.71875 
Q 11.71875 9.328125 16.59375 8.109375 
Q 21.484375 6.890625 26.8125 6.890625 
Q 36.078125 6.890625 40.9375 10.546875 
Q 45.796875 14.203125 45.796875 21.1875 
Q 45.796875 27.640625 41.28125 31.265625 
Q 36.765625 34.90625 28.71875 34.90625 
L 20.21875 34.90625 
L 20.21875 43.015625 
L 29.109375 43.015625 
Q 36.375 43.015625 40.234375 45.921875 
Q 44.09375 48.828125 44.09375 54.296875 
Q 44.09375 59.90625 40.109375 62.90625 
Q 36.140625 65.921875 28.71875 65.921875 
Q 24.65625 65.921875 20.015625 65.03125 
Q 15.375 64.15625 9.8125 62.3125 
L 9.8125 71.09375 
Q 15.4375 72.65625 20.34375 73.4375 
Q 25.25 74.21875 29.59375 74.21875 
Q 40.828125 74.21875 47.359375 69.109375 
Q 53.90625 64.015625 53.90625 55.328125 
Q 53.90625 49.265625 50.4375 45.09375 
Q 46.96875 40.921875 40.578125 39.3125 
z
" id="DejaVuSans-51"/>
      </defs>
      <g transform="translate(571.487228 574.565182)rotate(-45)scale(0.14 -0.14)">
       <use xlink:href="#DejaVuSans-49"/>
       <use x="63.623047" xlink:href="#DejaVuSans-44"/>
       <use x="95.410156" xlink:href="#DejaVuSans-51"/>
       <use x="159.033203" xlink:href="#DejaVuSans-48"/>
       <use x="222.65625" xlink:href="#DejaVuSans-48"/>
       <use x="286.279297" xlink:href="#DejaVuSans-32"/>
       <use x="318.066406" xlink:href="#DejaVuSans-110"/>
       <use x="381.445312" xlink:href="#DejaVuSans-109"/>
      </g>
     </g>
    </g>
    <g id="xtick_6">
     <g id="line2d_11">
      <path clip-path="url(#p2e6e0d1109)" d="M 1166.4 512.64 
L 1166.4 69.12 
" style="fill:none;stroke:#79818f;stroke-linecap:square;stroke-opacity:0.6;stroke-width:0.7;"/>
     </g>
     <g id="line2d_12">
      <g>
       <use style="stroke:#000000;stroke-width:0.8;" x="1166.4" xlink:href="#mdc4363d761" y="512.64"/>
      </g>
     </g>
     <g id="text_6">
      <!-- 2,500 nm -->
      <defs>
       <path d="M 19.1875 8.296875 
L 53.609375 8.296875 
L 53.609375 0 
L 7.328125 0 
L 7.328125 8.296875 
Q 12.9375 14.109375 22.625 23.890625 
Q 32.328125 33.6875 34.8125 36.53125 
Q 39.546875 41.84375 41.421875 45.53125 
Q 43.3125 49.21875 43.3125 52.78125 
Q 43.3125 58.59375 39.234375 62.25 
Q 35.15625 65.921875 28.609375 65.921875 
Q 23.96875 65.921875 18.8125 64.3125 
Q 13.671875 62.703125 7.8125 59.421875 
L 7.8125 69.390625 
Q 13.765625 71.78125 18.9375 73 
Q 24.125 74.21875 28.421875 74.21875 
Q 39.75 74.21875 46.484375 68.546875 
Q 53.21875 62.890625 53.21875 53.421875 
Q 53.21875 48.921875 51.53125 44.890625 
Q 49.859375 40.875 45.40625 35.40625 
Q 44.1875 33.984375 37.640625 27.21875 
Q 31.109375 20.453125 19.1875 8.296875 
z
" id="DejaVuSans-50"/>
      </defs>
      <g transform="translate(1145.430085 574.565182)rotate(-45)scale(0.14 -0.14)">
       <use xlink:href="#DejaVuSans-50"/>
       <use x="63.623047" xlink:href="#DejaVuSans-44"/>
       <use x="95.410156" xlink:href="#DejaVuSans-53"/>
       <use x="159.033203" xlink:href="#DejaVuSans-48"/>
       <use x="222.65625" xlink:href="#DejaVuSans-48"/>
       <use x="286.279297" xlink:href="#DejaVuSans-32"/>
       <use x="318.066406" xlink:href="#DejaVuSans-110"/>
       <use x="381.445312" xlink:href="#DejaVuSans-109"/>
      </g>
     </g>
    </g>
    <g id="text_7">
     <!-- Wavelength (nm) -->
     <defs>
      <path d="M 3.328125 72.90625 
L 13.28125 72.90625 
L 28.609375 11.28125 
L 43.890625 72.90625 
L 54.984375 72.90625 
L 70.3125 11.28125 
L 85.59375 72.90625 
L 95.609375 72.90625 
L 77.296875 0 
L 64.890625 0 
L 49.515625 63.28125 
L 33.984375 0 
L 21.578125 0 
z
" id="DejaVuSans-87"/>
      <path d="M 34.28125 27.484375 
Q 23.390625 27.484375 19.1875 25 
Q 14.984375 22.515625 14.984375 16.5 
Q 14.984375 11.71875 18.140625 8.90625 
Q 21.296875 6.109375 26.703125 6.109375 
Q 34.1875 6.109375 38.703125 11.40625 
Q 43.21875 16.703125 43.21875 25.484375 
L 43.21875 27.484375 
z
M 52.203125 31.203125 
L 52.203125 0 
L 43.21875 0 
L 43.21875 8.296875 
Q 40.140625 3.328125 35.546875 0.953125 
Q 30.953125 -1.421875 24.3125 -1.421875 
Q 15.921875 -1.421875 10.953125 3.296875 
Q 6 8.015625 6 15.921875 
Q 6 25.140625 12.171875 29.828125 
Q 18.359375 34.515625 30.609375 34.515625 
L 43.21875 34.515625 
L 43.21875 35.40625 
Q 43.21875 41.609375 39.140625 45 
Q 35.0625 48.390625 27.6875 48.390625 
Q 23 48.390625 18.546875 47.265625 
Q 14.109375 46.140625 10.015625 43.890625 
L 10.015625 52.203125 
Q 14.9375 54.109375 19.578125 55.046875 
Q 24.21875 56 28.609375 56 
Q 40.484375 56 46.34375 49.84375 
Q 52.203125 43.703125 52.203125 31.203125 
z
" id="DejaVuSans-97"/>
      <path d="M 2.984375 54.6875 
L 12.5 54.6875 
L 29.59375 8.796875 
L 46.6875 54.6875 
L 56.203125 54.6875 
L 35.6875 0 
L 23.484375 0 
z
" id="DejaVuSans-118"/>
      <path d="M 56.203125 29.59375 
L 56.203125 25.203125 
L 14.890625 25.203125 
Q 15.484375 15.921875 20.484375 11.0625 
Q 25.484375 6.203125 34.421875 6.203125 
Q 39.59375 6.203125 44.453125 7.46875 
Q 49.3125 8.734375 54.109375 11.28125 
L 54.109375 2.78125 
Q 49.265625 0.734375 44.1875 -0.34375 
Q 39.109375 -1.421875 33.890625 -1.421875 
Q 20.796875 -1.421875 13.15625 6.1875 
Q 5.515625 13.8125 5.515625 26.8125 
Q 5.515625 40.234375 12.765625 48.109375 
Q 20.015625 56 32.328125 56 
Q 43.359375 56 49.78125 48.890625 
Q 56.203125 41.796875 56.203125 29.59375 
z
M 47.21875 32.234375 
Q 47.125 39.59375 43.09375 43.984375 
Q 39.0625 48.390625 32.421875 48.390625 
Q 24.90625 48.390625 20.390625 44.140625 
Q 15.875 39.890625 15.1875 32.171875 
z
" id="DejaVuSans-101"/>
      <path d="M 9.421875 75.984375 
L 18.40625 75.984375 
L 18.40625 0 
L 9.421875 0 
z
" id="DejaVuSans-108"/>
      <path d="M 45.40625 27.984375 
Q 45.40625 37.75 41.375 43.109375 
Q 37.359375 48.484375 30.078125 48.484375 
Q 22.859375 48.484375 18.828125 43.109375 
Q 14.796875 37.75 14.796875 27.984375 
Q 14.796875 18.265625 18.828125 12.890625 
Q 22.859375 7.515625 30.078125 7.515625 
Q 37.359375 7.515625 41.375 12.890625 
Q 45.40625 18.265625 45.40625 27.984375 
z
M 54.390625 6.78125 
Q 54.390625 -7.171875 48.1875 -13.984375 
Q 42 -20.796875 29.203125 -20.796875 
Q 24.46875 -20.796875 20.265625 -20.09375 
Q 16.0625 -19.390625 12.109375 -17.921875 
L 12.109375 -9.1875 
Q 16.0625 -11.328125 19.921875 -12.34375 
Q 23.78125 -13.375 27.78125 -13.375 
Q 36.625 -13.375 41.015625 -8.765625 
Q 45.40625 -4.15625 45.40625 5.171875 
L 45.40625 9.625 
Q 42.625 4.78125 38.28125 2.390625 
Q 33.9375 0 27.875 0 
Q 17.828125 0 11.671875 7.65625 
Q 5.515625 15.328125 5.515625 27.984375 
Q 5.515625 40.671875 11.671875 48.328125 
Q 17.828125 56 27.875 56 
Q 33.9375 56 38.28125 53.609375 
Q 42.625 51.21875 45.40625 46.390625 
L 45.40625 54.6875 
L 54.390625 54.6875 
z
" id="DejaVuSans-103"/>
      <path d="M 18.3125 70.21875 
L 18.3125 54.6875 
L 36.8125 54.6875 
L 36.8125 47.703125 
L 18.3125 47.703125 
L 18.3125 18.015625 
Q 18.3125 11.328125 20.140625 9.421875 
Q 21.96875 7.515625 27.59375 7.515625 
L 36.8125 7.515625 
L 36.8125 0 
L 27.59375 0 
Q 17.1875 0 13.234375 3.875 
Q 9.28125 7.765625 9.28125 18.015625 
L 9.28125 47.703125 
L 2.6875 47.703125 
L 2.6875 54.6875 
L 9.28125 54.6875 
L 9.28125 70.21875 
z
" id="DejaVuSans-116"/>
      <path d="M 54.890625 33.015625 
L 54.890625 0 
L 45.90625 0 
L 45.90625 32.71875 
Q 45.90625 40.484375 42.875 44.328125 
Q 39.84375 48.1875 33.796875 48.1875 
Q 26.515625 48.1875 22.3125 43.546875 
Q 18.109375 38.921875 18.109375 30.90625 
L 18.109375 0 
L 9.078125 0 
L 9.078125 75.984375 
L 18.109375 75.984375 
L 18.109375 46.1875 
Q 21.34375 51.125 25.703125 53.5625 
Q 30.078125 56 35.796875 56 
Q 45.21875 56 50.046875 50.171875 
Q 54.890625 44.34375 54.890625 33.015625 
z
" id="DejaVuSans-104"/>
      <path d="M 31 75.875 
Q 24.46875 64.65625 21.28125 53.65625 
Q 18.109375 42.671875 18.109375 31.390625 
Q 18.109375 20.125 21.3125 9.0625 
Q 24.515625 -2 31 -13.1875 
L 23.1875 -13.1875 
Q 15.875 -1.703125 12.234375 9.375 
Q 8.59375 20.453125 8.59375 31.390625 
Q 8.59375 42.28125 12.203125 53.3125 
Q 15.828125 64.359375 23.1875 75.875 
z
" id="DejaVuSans-40"/>
      <path d="M 8.015625 75.875 
L 15.828125 75.875 
Q 23.140625 64.359375 26.78125 53.3125 
Q 30.421875 42.28125 30.421875 31.390625 
Q 30.421875 20.453125 26.78125 9.375 
Q 23.140625 -1.703125 15.828125 -13.1875 
L 8.015625 -13.1875 
Q 14.5 -2 17.703125 9.0625 
Q 20.90625 20.125 20.90625 31.390625 
Q 20.90625 42.671875 17.703125 53.65625 
Q 14.5 64.65625 8.015625 75.875 
z
" id="DejaVuSans-41"/>
     </defs>
     <g transform="translate(573.496406 596.580686)scale(0.21 -0.21)">
      <use xlink:href="#DejaVuSans-87"/>
      <use x="92.501953" xlink:href="#DejaVuSans-97"/>
      <use x="153.78125" xlink:href="#DejaVuSans-118"/>
      <use x="212.960938" xlink:href="#DejaVuSans-101"/>
      <use x="274.484375" xlink:href="#DejaVuSans-108"/>
      <use x="302.267578" xlink:href="#DejaVuSans-101"/>
      <use x="363.791016" xlink:href="#DejaVuSans-110"/>
      <use x="427.169922" xlink:href="#DejaVuSans-103"/>
      <use x="490.646484" xlink:href="#DejaVuSans-116"/>
      <use x="529.855469" xlink:href="#DejaVuSans-104"/>
      <use x="593.234375" xlink:href="#DejaVuSans-32"/>
      <use x="625.021484" xlink:href="#DejaVuSans-40"/>
      <use x="664.035156" xlink:href="#DejaVuSans-110"/>
      <use x="727.414062" xlink:href="#DejaVuSans-109"/>
      <use x="824.826172" xlink:href="#DejaVuSans-41"/>
     </g>
    </g>
   </g>
   <g id="matplotlib.axis_2">
    <g id="ytick_1">
     <g id="line2d_13">
      <path clip-path="url(#p2e6e0d1109)" d="M 162 510.976725 
L 1166.4 510.976725 
" style="fill:none;stroke:#2b2a27;stroke-dasharray:2.59,1.12;stroke-dashoffset:0;stroke-opacity:0.6;stroke-width:0.7;"/>
     </g>
     <g id="line2d_14">
      <defs>
       <path d="M 0 0 
L -3.5 0 
" id="md1189e8d10" style="stroke:#000000;stroke-width:0.8;"/>
      </defs>
      <g>
       <use style="stroke:#000000;stroke-width:0.8;" x="162" xlink:href="#md1189e8d10" y="510.976725"/>
      </g>
     </g>
     <g id="text_8">
      <!-- 0% -->
      <defs>
       <path d="M 72.703125 32.078125 
Q 68.453125 32.078125 66.03125 28.46875 
Q 63.625 24.859375 63.625 18.40625 
Q 63.625 12.0625 66.03125 8.421875 
Q 68.453125 4.78125 72.703125 4.78125 
Q 76.859375 4.78125 79.265625 8.421875 
Q 81.6875 12.0625 81.6875 18.40625 
Q 81.6875 24.8125 79.265625 28.4375 
Q 76.859375 32.078125 72.703125 32.078125 
z
M 72.703125 38.28125 
Q 80.421875 38.28125 84.953125 32.90625 
Q 89.5 27.546875 89.5 18.40625 
Q 89.5 9.28125 84.9375 3.921875 
Q 80.375 -1.421875 72.703125 -1.421875 
Q 64.890625 -1.421875 60.34375 3.921875 
Q 55.8125 9.28125 55.8125 18.40625 
Q 55.8125 27.59375 60.375 32.9375 
Q 64.9375 38.28125 72.703125 38.28125 
z
M 22.3125 68.015625 
Q 18.109375 68.015625 15.6875 64.375 
Q 13.28125 60.75 13.28125 54.390625 
Q 13.28125 47.953125 15.671875 44.328125 
Q 18.0625 40.71875 22.3125 40.71875 
Q 26.5625 40.71875 28.96875 44.328125 
Q 31.390625 47.953125 31.390625 54.390625 
Q 31.390625 60.6875 28.953125 64.34375 
Q 26.515625 68.015625 22.3125 68.015625 
z
M 66.40625 74.21875 
L 74.21875 74.21875 
L 28.609375 -1.421875 
L 20.796875 -1.421875 
z
M 22.3125 74.21875 
Q 30.03125 74.21875 34.609375 68.875 
Q 39.203125 63.53125 39.203125 54.390625 
Q 39.203125 45.171875 34.640625 39.84375 
Q 30.078125 34.515625 22.3125 34.515625 
Q 14.546875 34.515625 10.03125 39.859375 
Q 5.515625 45.21875 5.515625 54.390625 
Q 5.515625 63.484375 10.046875 68.84375 
Q 14.59375 74.21875 22.3125 74.21875 
z
" id="DejaVuSans-37"/>
      </defs>
      <g transform="translate(132.790312 516.295631)scale(0.14 -0.14)">
       <use xlink:href="#DejaVuSans-48"/>
       <use x="63.623047" xlink:href="#DejaVuSans-37"/>
      </g>
     </g>
    </g>
    <g id="ytick_2">
     <g id="line2d_15">
      <path clip-path="url(#p2e6e0d1109)" d="M 162 447.854336 
L 1166.4 447.854336 
" style="fill:none;stroke:#2b2a27;stroke-dasharray:2.59,1.12;stroke-dashoffset:0;stroke-opacity:0.6;stroke-width:0.7;"/>
     </g>
     <g id="line2d_16">
      <g>
       <use style="stroke:#000000;stroke-width:0.8;" x="162" xlink:href="#md1189e8d10" y="447.854336"/>
      </g>
     </g>
     <g id="text_9">
      <!-- 10% -->
      <g transform="translate(123.882812 453.173242)scale(0.14 -0.14)">
       <use xlink:href="#DejaVuSans-49"/>
       <use x="63.623047" xlink:href="#DejaVuSans-48"/>
       <use x="127.246094" xlink:href="#DejaVuSans-37"/>
      </g>
     </g>
    </g>
    <g id="ytick_3">
     <g id="line2d_17">
      <path clip-path="url(#p2e6e0d1109)" d="M 162 384.731946 
L 1166.4 384.731946 
" style="fill:none;stroke:#2b2a27;stroke-dasharray:2.59,1.12;stroke-dashoffset:0;stroke-opacity:0.6;stroke-width:0.7;"/>
     </g>
     <g id="line2d_18">
      <g>
       <use style="stroke:#000000;stroke-width:0.8;" x="162" xlink:href="#md1189e8d10" y="384.731946"/>
      </g>
     </g>
     <g id="text_10">
      <!-- 20% -->
      <g transform="translate(123.882812 390.050853)scale(0.14 -0.14)">
       <use xlink:href="#DejaVuSans-50"/>
       <use x="63.623047" xlink:href="#DejaVuSans-48"/>
       <use x="127.246094" xlink:href="#DejaVuSans-37"/>
      </g>
     </g>
    </g>
    <g id="ytick_4">
     <g id="line2d_19">
      <path clip-path="url(#p2e6e0d1109)" d="M 162 321.609557 
L 1166.4 321.609557 
" style="fill:none;stroke:#2b2a27;stroke-dasharray:2.59,1.12;stroke-dashoffset:0;stroke-opacity:0.6;stroke-width:0.7;"/>
     </g>
     <g id="line2d_20">
      <g>
       <use style="stroke:#000000;stroke-width:0.8;" x="162" xlink:href="#md1189e8d10" y="321.609557"/>
      </g>
     </g>
     <g id="text_11">
      <!-- 30% -->
      <g transform="translate(123.882812 326.928463)scale(0.14 -0.14)">
       <use xlink:href="#DejaVuSans-51"/>
       <use x="63.623047" xlink:href="#DejaVuSans-48"/>
       <use x="127.246094" xlink:href="#DejaVuSans-37"/>
      </g>
     </g>
    </g>
    <g id="ytick_5">
     <g id="line2d_21">
      <path clip-path="url(#p2e6e0d1109)" d="M 162 258.487168 
L 1166.4 258.487168 
" style="fill:none;stroke:#2b2a27;stroke-dasharray:2.59,1.12;stroke-dashoffset:0;stroke-opacity:0.6;stroke-width:0.7;"/>
     </g>
     <g id="line2d_22">
      <g>
       <use style="stroke:#000000;stroke-width:0.8;" x="162" xlink:href="#md1189e8d10" y="258.487168"/>
      </g>
     </g>
     <g id="text_12">
      <!-- 40% -->
      <g transform="translate(123.882812 263.806074)scale(0.14 -0.14)">
       <use xlink:href="#DejaVuSans-52"/>
       <use x="63.623047" xlink:href="#DejaVuSans-48"/>
       <use x="127.246094" xlink:href="#DejaVuSans-37"/>
      </g>
     </g>
    </g>
    <g id="ytick_6">
     <g id="line2d_23">
      <path clip-path="url(#p2e6e0d1109)" d="M 162 195.364779 
L 1166.4 195.364779 
" style="fill:none;stroke:#2b2a27;stroke-dasharray:2.59,1.12;stroke-dashoffset:0;stroke-opacity:0.6;stroke-width:0.7;"/>
     </g>
     <g id="line2d_24">
      <g>
       <use style="stroke:#000000;stroke-width:0.8;" x="162" xlink:href="#md1189e8d10" y="195.364779"/>
      </g>
     </g>
     <g id="text_13">
      <!-- 50% -->
      <g transform="translate(123.882812 200.683685)scale(0.14 -0.14)">
       <use xlink:href="#DejaVuSans-53"/>
       <use x="63.623047" xlink:href="#DejaVuSans-48"/>
       <use x="127.246094" xlink:href="#DejaVuSans-37"/>
      </g>
     </g>
    </g>
    <g id="ytick_7">
     <g id="line2d_25">
      <path clip-path="url(#p2e6e0d1109)" d="M 162 132.242389 
L 1166.4 132.242389 
" style="fill:none;stroke:#2b2a27;stroke-dasharray:2.59,1.12;stroke-dashoffset:0;stroke-opacity:0.6;stroke-width:0.7;"/>
     </g>
     <g id="line2d_26">
      <g>
       <use style="stroke:#000000;stroke-width:0.8;" x="162" xlink:href="#md1189e8d10" y="132.242389"/>
      </g>
     </g>
     <g id="text_14">
      <!-- 60% -->
      <g transform="translate(123.882812 137.561296)scale(0.14 -0.14)">
       <use xlink:href="#DejaVuSans-54"/>
       <use x="63.623047" xlink:href="#DejaVuSans-48"/>
       <use x="127.246094" xlink:href="#DejaVuSans-37"/>
      </g>
     </g>
    </g>
    <g id="ytick_8">
     <g id="line2d_27">
      <path clip-path="url(#p2e6e0d1109)" d="M 162 69.12 
L 1166.4 69.12 
" style="fill:none;stroke:#2b2a27;stroke-dasharray:2.59,1.12;stroke-dashoffset:0;stroke-opacity:0.6;stroke-width:0.7;"/>
     </g>
     <g id="line2d_28">
      <g>
       <use style="stroke:#000000;stroke-width:0.8;" x="162" xlink:href="#md1189e8d10" y="69.12"/>
      </g>
     </g>
     <g id="text_15">
      <!-- 70% -->
      <g transform="translate(123.882812 74.438906)scale(0.14 -0.14)">
       <use xlink:href="#DejaVuSans-55"/>
       <use x="63.623047" xlink:href="#DejaVuSans-48"/>
       <use x="127.246094" xlink:href="#DejaVuSans-37"/>
      </g>
     </g>
    </g>
    <g id="text_16">
     <!-- % Reflectance -->
     <defs>
      <path d="M 44.390625 34.1875 
Q 47.5625 33.109375 50.5625 29.59375 
Q 53.5625 26.078125 56.59375 19.921875 
L 66.609375 0 
L 56 0 
L 46.6875 18.703125 
Q 43.0625 26.03125 39.671875 28.421875 
Q 36.28125 30.8125 30.421875 30.8125 
L 19.671875 30.8125 
L 19.671875 0 
L 9.8125 0 
L 9.8125 72.90625 
L 32.078125 72.90625 
Q 44.578125 72.90625 50.734375 67.671875 
Q 56.890625 62.453125 56.890625 51.90625 
Q 56.890625 45.015625 53.6875 40.46875 
Q 50.484375 35.9375 44.390625 34.1875 
z
M 19.671875 64.796875 
L 19.671875 38.921875 
L 32.078125 38.921875 
Q 39.203125 38.921875 42.84375 42.21875 
Q 46.484375 45.515625 46.484375 51.90625 
Q 46.484375 58.296875 42.84375 61.546875 
Q 39.203125 64.796875 32.078125 64.796875 
z
" id="DejaVuSans-82"/>
      <path d="M 37.109375 75.984375 
L 37.109375 68.5 
L 28.515625 68.5 
Q 23.6875 68.5 21.796875 66.546875 
Q 19.921875 64.59375 19.921875 59.515625 
L 19.921875 54.6875 
L 34.71875 54.6875 
L 34.71875 47.703125 
L 19.921875 47.703125 
L 19.921875 0 
L 10.890625 0 
L 10.890625 47.703125 
L 2.296875 47.703125 
L 2.296875 54.6875 
L 10.890625 54.6875 
L 10.890625 58.5 
Q 10.890625 67.625 15.140625 71.796875 
Q 19.390625 75.984375 28.609375 75.984375 
z
" id="DejaVuSans-102"/>
      <path d="M 48.78125 52.59375 
L 48.78125 44.1875 
Q 44.96875 46.296875 41.140625 47.34375 
Q 37.3125 48.390625 33.40625 48.390625 
Q 24.65625 48.390625 19.8125 42.84375 
Q 14.984375 37.3125 14.984375 27.296875 
Q 14.984375 17.28125 19.8125 11.734375 
Q 24.65625 6.203125 33.40625 6.203125 
Q 37.3125 6.203125 41.140625 7.25 
Q 44.96875 8.296875 48.78125 10.40625 
L 48.78125 2.09375 
Q 45.015625 0.34375 40.984375 -0.53125 
Q 36.96875 -1.421875 32.421875 -1.421875 
Q 20.0625 -1.421875 12.78125 6.34375 
Q 5.515625 14.109375 5.515625 27.296875 
Q 5.515625 40.671875 12.859375 48.328125 
Q 20.21875 56 33.015625 56 
Q 37.15625 56 41.109375 55.140625 
Q 45.0625 54.296875 48.78125 52.59375 
z
" id="DejaVuSans-99"/>
     </defs>
     <g transform="translate(115.515469 365.764687)rotate(-90)scale(0.21 -0.21)">
      <use xlink:href="#DejaVuSans-37"/>
      <use x="95.019531" xlink:href="#DejaVuSans-32"/>
      <use x="126.806641" xlink:href="#DejaVuSans-82"/>
      <use x="191.789062" xlink:href="#DejaVuSans-101"/>
      <use x="253.3125" xlink:href="#DejaVuSans-102"/>
      <use x="288.517578" xlink:href="#DejaVuSans-108"/>
      <use x="316.300781" xlink:href="#DejaVuSans-101"/>
      <use x="377.824219" xlink:href="#DejaVuSans-99"/>
      <use x="432.804688" xlink:href="#DejaVuSans-116"/>
      <use x="472.013672" xlink:href="#DejaVuSans-97"/>
      <use x="533.292969" xlink:href="#DejaVuSans-110"/>
      <use x="596.671875" xlink:href="#DejaVuSans-99"/>
      <use x="651.652344" xlink:href="#DejaVuSans-101"/>
     </g>
    </g>
   </g>
   <g id="line2d_29">
    <path clip-path="url(#p2e6e0d1109)" d="M 139.520571 492.292498 
L 141.433714 492.35562 
L 143.346857 492.797477 
L 144.781714 492.734355 
L 146.216571 492.481865 
L 147.651429 493.049966 
L 149.086286 492.671232 
L 150.521143 492.986844 
L 152.912571 492.671232 
L 153.869143 493.113089 
L 154.825714 492.35562 
L 155.782286 492.60811 
L 156.738857 492.35562 
L 157.695429 492.734355 
L 159.608571 492.734355 
L 160.565143 492.481865 
L 161.521714 491.976886 
L 162.478286 491.913763 
L 163.434857 491.724396 
L 164.391429 491.661274 
L 165.348 491.345662 
L 166.304571 490.903805 
L 167.261143 490.903805 
L 168.217714 490.146337 
L 169.652571 489.893847 
L 171.087429 489.199501 
L 172.522286 489.325746 
L 173.957143 488.883889 
L 176.826857 488.694522 
L 178.261714 488.37891 
L 179.696571 488.505154 
L 182.566286 488.315787 
L 184.001143 488.37891 
L 186.392571 488.063298 
L 187.349143 488.063298 
L 188.305714 487.937053 
L 189.262286 488.315787 
L 190.218857 488.37891 
L 191.175429 488.315787 
L 192.132 487.495196 
L 194.045143 488.189543 
L 195.001714 487.305829 
L 195.958286 487.937053 
L 196.914857 487.747686 
L 197.871429 487.937053 
L 199.784571 488.12642 
L 200.741143 487.305829 
L 201.697714 487.937053 
L 202.654286 487.558319 
L 203.610857 487.937053 
L 204.567429 488.000175 
L 205.524 487.684563 
L 206.480571 487.495196 
L 207.437143 487.432074 
L 208.393714 486.674605 
L 209.350286 487.116462 
L 210.306857 486.295871 
L 211.263429 486.232748 
L 212.22 485.412157 
L 213.176571 484.907178 
L 214.133143 484.212832 
L 215.089714 482.445405 
L 216.046286 481.309202 
L 217.959429 477.080002 
L 218.916 474.11325 
L 219.872571 471.651477 
L 221.785714 464.581769 
L 222.742286 462.119996 
L 224.655429 456.754593 
L 225.612 454.292819 
L 228.481714 451.262945 
L 229.438286 451.38919 
L 230.394857 450.88421 
L 231.351429 450.063619 
L 232.308 450.631721 
L 233.264571 449.684885 
L 234.221143 449.369273 
L 235.177714 449.306151 
L 236.134286 448.864294 
L 237.090857 449.621763 
L 239.960571 453.535351 
L 240.917143 455.61839 
L 241.873714 457.259572 
L 243.786857 462.435608 
L 244.743429 464.07679 
L 245.7 466.222951 
L 246.656571 467.485399 
L 247.613143 469.568438 
L 248.569714 470.073417 
L 249.526286 471.525232 
L 250.482857 472.219578 
L 251.439429 473.355781 
L 252.396 473.166414 
L 253.352571 473.734515 
L 254.309143 475.123208 
L 255.265714 475.628187 
L 256.222286 475.565065 
L 257.178857 475.123208 
L 258.135429 475.375697 
L 259.092 476.196289 
L 259.570286 476.259411 
L 260.526857 477.01688 
L 261.961714 477.080002 
L 262.918286 478.34245 
L 263.396571 478.34245 
L 264.353143 479.226163 
L 265.309714 479.478653 
L 265.788 479.92051 
L 268.179429 481.624814 
L 269.136 481.372324 
L 269.614286 481.561692 
L 271.049143 481.751059 
L 272.005714 482.003548 
L 272.962286 482.003548 
L 273.918857 482.256038 
L 274.875429 482.382283 
L 275.832 482.129793 
L 276.788571 483.202874 
L 277.745143 483.64473 
L 278.701714 484.339077 
L 279.658286 484.528444 
L 280.614857 485.349035 
L 281.571429 485.47528 
L 282.528 485.349035 
L 283.484571 485.917136 
L 284.441143 485.538402 
L 285.397714 486.422116 
L 286.354286 486.990217 
L 287.310857 487.05334 
L 289.224 487.873931 
L 290.180571 487.179584 
L 291.137143 488.37891 
L 292.572 488.37891 
L 294.006857 488.947011 
L 295.441714 488.505154 
L 296.876571 488.757644 
L 299.746286 486.863972 
L 301.181143 484.528444 
L 302.616 479.983632 
L 304.050857 469.252826 
L 306.442286 445.32944 
L 313.138286 355.695647 
L 321.747429 219.98251 
L 324.617143 182.740301 
L 325.573714 172.009495 
L 327.486857 154.335226 
L 328.443429 147.391763 
L 331.313143 132.242389 
L 332.748 125.298926 
L 334.182857 121.511583 
L 335.139429 118.355464 
L 337.052571 115.199344 
L 338.487429 113.936896 
L 339.444 112.043225 
L 341.357143 110.780777 
L 342.792 110.780777 
L 344.226857 108.887105 
L 348.053143 108.887105 
L 349.966286 107.624657 
L 351.879429 107.624657 
L 354.270857 108.255881 
L 356.662286 106.993434 
L 359.053714 106.993434 
L 361.445143 107.624657 
L 363.836571 106.993434 
L 370.054286 105.730986 
L 373.880571 106.36221 
L 381.533143 102.574866 
L 387.272571 104.468538 
L 393.012 103.20609 
L 398.273143 104.468538 
L 403.056 105.099762 
L 407.838857 107.624657 
L 416.926286 108.887105 
L 420.752571 110.780777 
L 424.578857 114.56812 
L 428.405143 115.830568 
L 431.753143 119.617911 
L 434.622857 119.617911 
L 437.492571 120.249135 
L 440.362286 121.511583 
L 443.232 120.880359 
L 446.101714 121.511583 
L 448.971429 120.249135 
L 453.754286 120.249135 
L 453.754286 118.986688 
L 458.537143 118.986688 
L 458.537143 115.199344 
L 463.32 115.830568 
L 463.32 114.56812 
L 468.102857 115.830568 
L 468.102857 114.56812 
L 472.885714 114.56812 
L 472.885714 114.56812 
L 477.668571 112.674449 
L 477.668571 113.305673 
L 482.451429 113.305673 
L 482.451429 113.305673 
L 487.234286 115.199344 
L 487.234286 114.56812 
L 492.017143 113.936896 
L 492.017143 115.199344 
L 501.582857 117.72424 
L 501.582857 117.093016 
L 506.365714 118.355464 
L 506.365714 118.355464 
L 511.148571 120.880359 
L 511.148571 122.774031 
L 515.931429 127.823822 
L 515.931429 133.504837 
L 520.714286 139.185852 
L 520.714286 142.973195 
L 525.497143 145.498091 
L 525.497143 149.285434 
L 530.28 151.179106 
L 530.28 151.179106 
L 535.062857 153.704002 
L 535.062857 153.704002 
L 539.845714 154.335226 
L 539.845714 154.335226 
L 544.628571 156.228897 
L 544.628571 155.597673 
L 549.411429 155.597673 
L 549.411429 154.966449 
L 554.194286 153.704002 
L 554.194286 153.072778 
L 558.977143 151.81033 
L 558.977143 151.179106 
L 563.76 151.179106 
L 563.76 149.916658 
L 568.542857 149.916658 
L 568.542857 149.285434 
L 573.325714 148.022987 
L 573.325714 148.654211 
L 578.108571 148.654211 
L 578.108571 148.022987 
L 582.891429 149.285434 
L 582.891429 149.916658 
L 587.674286 151.179106 
L 587.674286 152.441554 
L 592.457143 154.335226 
L 592.457143 155.597673 
L 597.24 158.753793 
L 597.24 161.278688 
L 602.022857 165.066032 
L 602.022857 170.115823 
L 606.805714 175.165614 
L 606.805714 180.846629 
L 611.588571 185.89642 
L 611.588571 192.208659 
L 616.371429 197.889674 
L 616.371429 201.045794 
L 621.154286 206.095585 
L 621.154286 209.882928 
L 625.937143 216.195167 
L 625.937143 225.032302 
L 630.72 236.394332 
L 630.72 250.281257 
L 635.502857 274.267765 
L 635.502857 296.360601 
L 640.285714 320.978333 
L 640.285714 343.07117 
L 645.068571 358.851767 
L 645.068571 370.845021 
L 649.851429 379.050931 
L 649.851429 385.994394 
L 654.634286 391.675409 
L 654.634286 394.831529 
L 659.417143 396.7252 
L 659.417143 397.356424 
L 664.2 399.250096 
L 664.2 399.250096 
L 668.982857 398.618872 
L 668.982857 399.250096 
L 673.765714 397.356424 
L 673.765714 393.569081 
L 678.548571 389.781738 
L 678.548571 385.994394 
L 683.331429 381.575827 
L 683.331429 376.526036 
L 688.114286 372.738692 
L 688.114286 367.688901 
L 692.897143 362.63911 
L 692.897143 358.220543 
L 697.68 351.908304 
L 697.68 346.227289 
L 702.462857 341.177498 
L 702.462857 336.127707 
L 707.245714 331.077916 
L 712.028571 324.765677 
L 712.028571 320.347109 
L 716.811429 315.297318 
L 716.811429 309.616303 
L 721.594286 306.460184 
L 726.377143 301.410393 
L 726.377143 297.623049 
L 731.16 292.573258 
L 735.942857 289.417139 
L 740.725714 284.998571 
L 740.725714 282.473676 
L 750.291429 276.161437 
L 750.291429 274.267765 
L 759.857143 270.480422 
L 759.857143 269.849198 
L 764.64 269.849198 
L 769.422857 267.955526 
L 774.205714 270.480422 
L 774.205714 274.267765 
L 778.988571 272.374094 
L 783.771429 273.636541 
L 793.337143 282.473676 
L 793.337143 285.629795 
L 798.12 288.785915 
L 802.902857 290.679586 
L 807.685714 291.31081 
L 812.468571 294.46693 
L 812.468571 298.885497 
L 817.251429 303.935288 
L 822.034286 306.460184 
L 826.817143 305.82896 
L 831.6 308.353855 
L 831.6 307.091408 
L 836.382857 307.091408 
L 845.948571 308.353855 
L 850.731429 310.878751 
L 855.514286 322.872005 
L 860.297143 345.596065 
L 869.862857 378.419708 
L 874.645714 421.342932 
L 879.428571 457.512061 
L 884.211429 474.050127 
L 888.994286 482.761017 
L 893.777143 483.581608 
L 893.777143 485.159668 
L 898.56 480.804223 
L 903.342857 480.677978 
L 908.125714 478.594939 
L 917.691429 474.176372 
L 922.474286 470.010294 
L 927.257143 465.023626 
L 932.04 460.605058 
L 936.822857 457.070205 
L 941.605714 451.199822 
L 946.388571 445.960664 
L 951.171429 440.910873 
L 955.954286 438.385977 
L 960.737143 432.073738 
L 965.52 428.286395 
L 970.302857 423.236604 
L 975.085714 418.818037 
L 979.868571 413.137022 
L 984.651429 411.24335 
L 989.434286 407.456007 
L 994.217143 401.143768 
L 999 401.143768 
L 1003.782857 399.88132 
L 1008.565714 397.356424 
L 1013.348571 396.093977 
L 1013.348571 392.306633 
L 1018.131429 389.781738 
L 1027.697143 389.781738 
L 1032.48 387.256842 
L 1037.262857 387.256842 
L 1046.828571 392.306633 
L 1051.611429 396.093977 
L 1056.394286 404.299887 
L 1061.177143 409.349678 
L 1065.96 404.299887 
L 1070.742857 406.824783 
L 1075.525714 408.08723 
L 1080.308571 420.080484 
L 1085.091429 427.023947 
L 1089.874286 427.023947 
L 1094.657143 432.073738 
L 1099.44 435.229858 
L 1104.222857 437.12353 
L 1109.005714 438.385977 
L 1113.788571 445.32944 
L 1118.571429 448.611804 
L 1128.137143 458.332652 
L 1137.702857 464.518647 
L 1166.4 479.794265 
L 1180.748571 483.202874 
L 1195.097143 482.192916 
L 1209.445714 485.096545 
L 1209.445714 485.096545 
" style="fill:none;stroke:#f55d42;stroke-linecap:square;stroke-width:2;"/>
   </g>
   <g id="patch_8">
    <path d="M 162 512.64 
L 162 69.12 
" style="fill:none;stroke:#000000;stroke-linecap:square;stroke-linejoin:miter;stroke-width:0.8;"/>
   </g>
   <g id="patch_9">
    <path d="M 1166.4 512.64 
L 1166.4 69.12 
" style="fill:none;stroke:#000000;stroke-linecap:square;stroke-linejoin:miter;stroke-width:0.8;"/>
   </g>
   <g id="patch_10">
    <path d="M 162 512.64 
L 1166.4 512.64 
" style="fill:none;stroke:#000000;stroke-linecap:square;stroke-linejoin:miter;stroke-width:0.8;"/>
   </g>
   <g id="patch_11">
    <path d="M 162 69.12 
L 1166.4 69.12 
" style="fill:none;stroke:#000000;stroke-linecap:square;stroke-linejoin:miter;stroke-width:0.8;"/>
   </g>
   <g id="text_17">
    <!-- Spectral Reflectance Curve for Maple Leaf -->
    <defs>
     <path d="M 53.515625 70.515625 
L 53.515625 60.890625 
Q 47.90625 63.578125 42.921875 64.890625 
Q 37.9375 66.21875 33.296875 66.21875 
Q 25.25 66.21875 20.875 63.09375 
Q 16.5 59.96875 16.5 54.203125 
Q 16.5 49.359375 19.40625 46.890625 
Q 22.3125 44.4375 30.421875 42.921875 
L 36.375 41.703125 
Q 47.40625 39.59375 52.65625 34.296875 
Q 57.90625 29 57.90625 20.125 
Q 57.90625 9.515625 50.796875 4.046875 
Q 43.703125 -1.421875 29.984375 -1.421875 
Q 24.8125 -1.421875 18.96875 -0.25 
Q 13.140625 0.921875 6.890625 3.21875 
L 6.890625 13.375 
Q 12.890625 10.015625 18.65625 8.296875 
Q 24.421875 6.59375 29.984375 6.59375 
Q 38.421875 6.59375 43.015625 9.90625 
Q 47.609375 13.234375 47.609375 19.390625 
Q 47.609375 24.75 44.3125 27.78125 
Q 41.015625 30.8125 33.5 32.328125 
L 27.484375 33.5 
Q 16.453125 35.6875 11.515625 40.375 
Q 6.59375 45.0625 6.59375 53.421875 
Q 6.59375 63.09375 13.40625 68.65625 
Q 20.21875 74.21875 32.171875 74.21875 
Q 37.3125 74.21875 42.625 73.28125 
Q 47.953125 72.359375 53.515625 70.515625 
z
" id="DejaVuSans-83"/>
     <path d="M 18.109375 8.203125 
L 18.109375 -20.796875 
L 9.078125 -20.796875 
L 9.078125 54.6875 
L 18.109375 54.6875 
L 18.109375 46.390625 
Q 20.953125 51.265625 25.265625 53.625 
Q 29.59375 56 35.59375 56 
Q 45.5625 56 51.78125 48.09375 
Q 58.015625 40.1875 58.015625 27.296875 
Q 58.015625 14.40625 51.78125 6.484375 
Q 45.5625 -1.421875 35.59375 -1.421875 
Q 29.59375 -1.421875 25.265625 0.953125 
Q 20.953125 3.328125 18.109375 8.203125 
z
M 48.6875 27.296875 
Q 48.6875 37.203125 44.609375 42.84375 
Q 40.53125 48.484375 33.40625 48.484375 
Q 26.265625 48.484375 22.1875 42.84375 
Q 18.109375 37.203125 18.109375 27.296875 
Q 18.109375 17.390625 22.1875 11.75 
Q 26.265625 6.109375 33.40625 6.109375 
Q 40.53125 6.109375 44.609375 11.75 
Q 48.6875 17.390625 48.6875 27.296875 
z
" id="DejaVuSans-112"/>
     <path d="M 41.109375 46.296875 
Q 39.59375 47.171875 37.8125 47.578125 
Q 36.03125 48 33.890625 48 
Q 26.265625 48 22.1875 43.046875 
Q 18.109375 38.09375 18.109375 28.8125 
L 18.109375 0 
L 9.078125 0 
L 9.078125 54.6875 
L 18.109375 54.6875 
L 18.109375 46.1875 
Q 20.953125 51.171875 25.484375 53.578125 
Q 30.03125 56 36.53125 56 
Q 37.453125 56 38.578125 55.875 
Q 39.703125 55.765625 41.0625 55.515625 
z
" id="DejaVuSans-114"/>
     <path d="M 64.40625 67.28125 
L 64.40625 56.890625 
Q 59.421875 61.53125 53.78125 63.8125 
Q 48.140625 66.109375 41.796875 66.109375 
Q 29.296875 66.109375 22.65625 58.46875 
Q 16.015625 50.828125 16.015625 36.375 
Q 16.015625 21.96875 22.65625 14.328125 
Q 29.296875 6.6875 41.796875 6.6875 
Q 48.140625 6.6875 53.78125 8.984375 
Q 59.421875 11.28125 64.40625 15.921875 
L 64.40625 5.609375 
Q 59.234375 2.09375 53.4375 0.328125 
Q 47.65625 -1.421875 41.21875 -1.421875 
Q 24.65625 -1.421875 15.125 8.703125 
Q 5.609375 18.84375 5.609375 36.375 
Q 5.609375 53.953125 15.125 64.078125 
Q 24.65625 74.21875 41.21875 74.21875 
Q 47.75 74.21875 53.53125 72.484375 
Q 59.328125 70.75 64.40625 67.28125 
z
" id="DejaVuSans-67"/>
     <path d="M 8.5 21.578125 
L 8.5 54.6875 
L 17.484375 54.6875 
L 17.484375 21.921875 
Q 17.484375 14.15625 20.5 10.265625 
Q 23.53125 6.390625 29.59375 6.390625 
Q 36.859375 6.390625 41.078125 11.03125 
Q 45.3125 15.671875 45.3125 23.6875 
L 45.3125 54.6875 
L 54.296875 54.6875 
L 54.296875 0 
L 45.3125 0 
L 45.3125 8.40625 
Q 42.046875 3.421875 37.71875 1 
Q 33.40625 -1.421875 27.6875 -1.421875 
Q 18.265625 -1.421875 13.375 4.4375 
Q 8.5 10.296875 8.5 21.578125 
z
M 31.109375 56 
z
" id="DejaVuSans-117"/>
     <path d="M 30.609375 48.390625 
Q 23.390625 48.390625 19.1875 42.75 
Q 14.984375 37.109375 14.984375 27.296875 
Q 14.984375 17.484375 19.15625 11.84375 
Q 23.34375 6.203125 30.609375 6.203125 
Q 37.796875 6.203125 41.984375 11.859375 
Q 46.1875 17.53125 46.1875 27.296875 
Q 46.1875 37.015625 41.984375 42.703125 
Q 37.796875 48.390625 30.609375 48.390625 
z
M 30.609375 56 
Q 42.328125 56 49.015625 48.375 
Q 55.71875 40.765625 55.71875 27.296875 
Q 55.71875 13.875 49.015625 6.21875 
Q 42.328125 -1.421875 30.609375 -1.421875 
Q 18.84375 -1.421875 12.171875 6.21875 
Q 5.515625 13.875 5.515625 27.296875 
Q 5.515625 40.765625 12.171875 48.375 
Q 18.84375 56 30.609375 56 
z
" id="DejaVuSans-111"/>
     <path d="M 9.8125 72.90625 
L 24.515625 72.90625 
L 43.109375 23.296875 
L 61.8125 72.90625 
L 76.515625 72.90625 
L 76.515625 0 
L 66.890625 0 
L 66.890625 64.015625 
L 48.09375 14.015625 
L 38.1875 14.015625 
L 19.390625 64.015625 
L 19.390625 0 
L 9.8125 0 
z
" id="DejaVuSans-77"/>
     <path d="M 9.8125 72.90625 
L 19.671875 72.90625 
L 19.671875 8.296875 
L 55.171875 8.296875 
L 55.171875 0 
L 9.8125 0 
z
" id="DejaVuSans-76"/>
    </defs>
    <g transform="translate(411.83625 63.12)scale(0.24 -0.24)">
     <use xlink:href="#DejaVuSans-83"/>
     <use x="63.476562" xlink:href="#DejaVuSans-112"/>
     <use x="126.953125" xlink:href="#DejaVuSans-101"/>
     <use x="188.476562" xlink:href="#DejaVuSans-99"/>
     <use x="243.457031" xlink:href="#DejaVuSans-116"/>
     <use x="282.666016" xlink:href="#DejaVuSans-114"/>
     <use x="323.779297" xlink:href="#DejaVuSans-97"/>
     <use x="385.058594" xlink:href="#DejaVuSans-108"/>
     <use x="412.841797" xlink:href="#DejaVuSans-32"/>
     <use x="444.628906" xlink:href="#DejaVuSans-82"/>
     <use x="509.611328" xlink:href="#DejaVuSans-101"/>
     <use x="571.134766" xlink:href="#DejaVuSans-102"/>
     <use x="606.339844" xlink:href="#DejaVuSans-108"/>
     <use x="634.123047" xlink:href="#DejaVuSans-101"/>
     <use x="695.646484" xlink:href="#DejaVuSans-99"/>
     <use x="750.626953" xlink:href="#DejaVuSans-116"/>
     <use x="789.835938" xlink:href="#DejaVuSans-97"/>
     <use x="851.115234" xlink:href="#DejaVuSans-110"/>
     <use x="914.494141" xlink:href="#DejaVuSans-99"/>
     <use x="969.474609" xlink:href="#DejaVuSans-101"/>
     <use x="1030.998047" xlink:href="#DejaVuSans-32"/>
     <use x="1062.785156" xlink:href="#DejaVuSans-67"/>
     <use x="1132.609375" xlink:href="#DejaVuSans-117"/>
     <use x="1195.988281" xlink:href="#DejaVuSans-114"/>
     <use x="1237.101562" xlink:href="#DejaVuSans-118"/>
     <use x="1296.28125" xlink:href="#DejaVuSans-101"/>
     <use x="1357.804688" xlink:href="#DejaVuSans-32"/>
     <use x="1389.591797" xlink:href="#DejaVuSans-102"/>
     <use x="1424.796875" xlink:href="#DejaVuSans-111"/>
     <use x="1485.978516" xlink:href="#DejaVuSans-114"/>
     <use x="1527.091797" xlink:href="#DejaVuSans-32"/>
     <use x="1558.878906" xlink:href="#DejaVuSans-77"/>
     <use x="1645.158203" xlink:href="#DejaVuSans-97"/>
     <use x="1706.4375" xlink:href="#DejaVuSans-112"/>
     <use x="1769.914062" xlink:href="#DejaVuSans-108"/>
     <use x="1797.697266" xlink:href="#DejaVuSans-101"/>
     <use x="1859.220703" xlink:href="#DejaVuSans-32"/>
     <use x="1891.007812" xlink:href="#DejaVuSans-76"/>
     <use x="1944.970703" xlink:href="#DejaVuSans-101"/>
     <use x="2006.494141" xlink:href="#DejaVuSans-97"/>
     <use x="2067.773438" xlink:href="#DejaVuSans-102"/>
    </g>
   </g>
  </g>
 </g>
 <defs>
  <clipPath id="p2e6e0d1109">
   <rect height="443.52" width="1004.4" x="162" y="69.12"/>
  </clipPath>
 </defs>
</svg>
